<svg width="164" height="50" viewBox="0 0 134 30" fill="none" xmlns="http://www.w3.org/2000/svg">
<path d="M34.9018 23.2223C35.3098 23.2186 35.6937 23.1184 36.0553 22.9124C36.4169 22.7064 36.7544 22.391 37.0679 21.966C37.3813 21.5411 37.6687 20.9974 37.9339 20.3349L42.9077 7.94116H45.3019L40.2131 21.2015C39.8533 22.1052 39.4212 22.8771 38.9224 23.5136C38.4217 24.1501 37.8672 24.6363 37.2626 24.9703C36.6562 25.3062 35.9978 25.4824 35.2875 25.5029C34.5772 25.5233 29.7778 25.5158 29.7778 25.5158C30.0541 24.8293 30.4639 23.8365 30.5122 23.7252C30.5882 23.5544 30.6865 23.4561 30.8348 23.3707C30.9795 23.2872 31.1909 23.2241 31.3931 23.2204L34.9018 23.2223Z" fill="#000"/>
<path d="M51.2178 8.13416H48.6308L41.7524 25.3934H43.7182C43.9389 25.3934 44.1187 25.334 44.2801 25.2134C44.4303 25.0835 44.5304 24.9425 44.5916 24.7922L46.116 20.7951L46.8282 18.9618L49.3744 12.2908C49.4653 12.0607 49.5543 11.799 49.6452 11.5003C49.7453 11.1997 49.8362 10.8786 49.9159 10.5391C50.107 11.2405 50.2868 11.812 50.4779 12.2722L53.0352 18.9636L53.7381 20.797L55.2625 24.794C55.333 24.974 55.4331 25.115 55.5741 25.2245C55.7243 25.3451 55.9042 25.3952 56.136 25.3952H58.1018L51.2178 8.13416Z" fill="#000"/>
<path d="M71.8548 21.6933C71.9994 21.6933 72.1237 21.7489 72.2275 21.8621L73.2382 22.9681C72.5317 23.8012 71.6712 24.447 70.6568 24.9035C69.6423 25.36 68.4202 25.5882 66.9922 25.5882C65.7404 25.5882 64.6073 25.3711 63.5929 24.9388C62.5785 24.5064 61.7124 23.9015 60.9947 23.1239C60.277 22.3464 59.7207 21.4168 59.3275 20.3349C58.9344 19.2531 58.7378 18.0636 58.7378 16.7647C58.7378 15.4657 58.9436 14.2763 59.3572 13.1945C59.7708 12.1126 60.3494 11.183 61.0967 10.4054C61.8422 9.62793 62.7343 9.023 63.7747 8.59063C64.8132 8.15827 65.963 7.94116 67.2222 7.94116C68.4499 7.94116 69.5403 8.14157 70.4954 8.54239C71.4505 8.9432 72.2795 9.47577 72.986 10.1419L72.1441 11.3314C72.0884 11.4205 72.018 11.491 71.9327 11.5485C71.8492 11.6042 71.7379 11.632 71.6026 11.632C71.4505 11.632 71.2725 11.5559 71.0666 11.4038C70.8626 11.2516 70.5937 11.0809 70.2599 10.8935C69.9261 10.7061 69.5162 10.5353 69.0266 10.3832C68.537 10.231 67.9269 10.1549 67.1981 10.1549C66.3394 10.1549 65.5531 10.3052 64.8391 10.6058C64.1252 10.9065 63.5095 11.3388 62.992 11.9048C62.4746 12.4708 62.0741 13.1629 61.7885 13.985C61.5029 14.807 61.3619 15.7348 61.3619 16.7684C61.3619 17.8187 61.5103 18.7521 61.807 19.5704C62.1037 20.3869 62.5117 21.0809 63.0347 21.6506C63.5558 22.2203 64.1697 22.6526 64.8762 22.9495C65.5809 23.2464 66.345 23.3949 67.1628 23.3949C67.6599 23.3949 68.1068 23.3652 68.5037 23.3039C68.9005 23.2446 69.2659 23.1536 69.5997 23.033C69.9316 22.9124 70.2469 22.7584 70.5436 22.5691C70.8403 22.3817 71.1334 22.1534 71.4227 21.8899C71.4876 21.8343 71.5543 21.7879 71.6267 21.7508C71.699 21.71 71.775 21.6933 71.8548 21.6933Z" fill="#000"/>
<path d="M89.9753 8.13232V25.3934H87.4123V17.6165H78.3994V25.3934H75.8253V8.13232H78.3994V15.7534H87.4123V8.13232H89.9753Z" fill="#000"/>
<path d="M106.028 10.2719H100.54V25.3934H97.9887V10.2719H92.4771V8.13232H106.026V10.2719H106.028Z" fill="#000"/>
<path d="M119.239 23.3151L119.228 25.3953H108.519V8.13232H119.228V10.2125H111.094V15.681H117.641V17.6888H111.094V23.3151H119.239Z" fill="#000"/>
<path d="M133.124 23.3151L133.113 25.3953H122.403V8.13232H133.113V10.2125H124.979V15.681H131.526V17.6888H124.979V23.3151H133.124Z" fill="#000"/>
<path d="M24.6793 1.41174C24.4283 1.98968 19.6617 13.5975 17.1428 19.7259C16.6379 20.955 15.4262 21.6842 13.809 21.716L4.52186 21.7191H4.23328L24.6793 1.41174Z" fill="#000"/>
<path d="M19.2115 22.7824C19.2115 22.7824 23.8743 22.7511 23.8954 22.8905C23.9159 23.0286 18.7307 24.8484 18.7307 24.8484C18.5126 24.9261 18.333 24.9861 18.1614 25.0253C18.023 25.0571 17.8934 25.0699 17.7769 25.0752C17.7117 25.0783 17.6052 25.0765 17.5396 25.0721C15.0172 24.8983 12.3849 24.7716 9.65151 24.7077C6.86116 24.6428 4.15357 24.6278 1.57648 24.6874L3.46649 22.7833C7.73916 22.7828 12.0114 22.7828 16.2841 22.7824C17.7125 22.8084 18.9724 21.8669 19.3884 20.49L24.6792 3.04944V14.9153C24.6608 16.3818 24.4103 17.4402 23.4929 18.8647C22.5632 20.3087 21.5333 21.0177 19.9752 22.005L19.1349 22.5225C18.8901 22.673 18.9242 22.7974 19.2115 22.7824Z" fill="#000"/>
</svg>
