<svg width="249" height="249" viewBox="0 0 249 249" fill="none" xmlns="http://www.w3.org/2000/svg">
<rect width="249" height="249" rx="39.6418" fill="#F8E11A"/>
<path d="M142.245 183.702V148.472C142.245 146.915 141.621 145.421 140.512 144.32C139.402 143.219 137.897 142.6 136.328 142.6H112.663C111.094 142.6 109.589 143.219 108.48 144.32C107.37 145.421 106.747 146.915 106.747 148.472V183.702C106.747 185.26 106.124 186.753 105.014 187.854C103.905 188.955 102.4 189.574 100.831 189.574L65.3376 189.579C64.5606 189.579 63.7912 189.427 63.0733 189.132C62.3554 188.837 61.7031 188.404 61.1536 187.859C60.6042 187.314 60.1683 186.667 59.871 185.954C59.5736 185.242 59.4205 184.478 59.4205 183.707V115.846C59.4205 115.028 59.5928 114.219 59.9262 113.47C60.2596 112.722 60.7469 112.052 61.3567 111.501L120.516 58.1174C121.605 57.1347 123.024 56.5902 124.496 56.5901C125.968 56.5901 127.387 57.1345 128.476 58.1172L187.643 111.501C188.253 112.052 188.74 112.722 189.074 113.47C189.407 114.219 189.58 115.028 189.58 115.846V183.707C189.58 184.478 189.427 185.242 189.129 185.954C188.832 186.667 188.396 187.314 187.847 187.859C187.297 188.404 186.645 188.837 185.927 189.132C185.209 189.427 184.44 189.579 183.663 189.579L148.16 189.574C146.591 189.574 145.087 188.955 143.977 187.854C142.868 186.753 142.245 185.26 142.245 183.702V183.702Z" stroke="#0C0B02" stroke-width="7.43284" stroke-linecap="round" stroke-linejoin="round"/>
</svg>
