<svg
    width="36"
    height="30"
    viewBox="0 0 36 30"
    fill="none"
    xmlns="http://www.w3.org/2000/svg"
>
    <path
        fill-rule="evenodd"
        clip-rule="evenodd"
        d="M18.0454 1.90418C12.3035 1.90418 7.42096 5.58332 5.6403 10.7098L4.28828 10.2423C6.26243 4.55885 11.6752 0.476562 18.0454 0.476562C25.7297 0.476562 32.0232 6.41728 32.5641 13.9466L34.2947 11.7069L35.4279 12.5786L32.5929 16.2475C32.477 16.3976 32.306 16.4955 32.1176 16.5197C31.9292 16.5438 31.739 16.4923 31.5888 16.3764L28.1325 13.7106L29.0077 12.5811L31.1488 14.2326C30.7506 7.35713 25.0363 1.90418 18.0454 1.90418ZM21.0359 9.50766C21.0511 9.52118 21.067 9.53537 21.0839 9.55042L21.9642 10.3344C26.1277 14.0422 23.5107 20.9528 18.0004 20.9528V22.3804C24.8624 22.3804 28.0331 13.8254 22.917 9.26932L22.0193 8.46985C21.9044 8.36747 21.7857 8.26166 21.6774 8.18132C21.5603 8.09442 21.3858 7.98261 21.1546 7.94337C20.8586 7.89304 20.5545 7.95604 20.3029 8.11975C20.1065 8.24756 19.991 8.41942 19.9183 8.54566C19.851 8.66232 19.7842 8.80661 19.7197 8.94613L17.8346 13.0174L14.0286 9.7228C13.8466 9.56528 13.675 9.41675 13.5269 9.31013C13.3862 9.20894 13.1431 9.05004 12.8297 9.04094C12.4601 9.03028 12.1063 9.19132 11.8722 9.4769C11.6736 9.71904 11.6347 10.0064 11.6191 10.1787C11.6027 10.3603 11.6027 10.5869 11.6027 10.8273V17.3681H13.0336V10.8559C13.0336 10.8192 13.0336 10.7845 13.0337 10.7518C13.0585 10.7732 13.0848 10.7959 13.1126 10.8199L18.335 15.3407L21.0089 9.56599C21.0184 9.54547 21.0273 9.52608 21.0359 9.50766ZM3.97328 13.4801C4.16162 13.4559 4.35191 13.5075 4.50215 13.6234L7.95837 16.2892L7.08324 17.4187L4.94215 15.7672C5.34029 22.6427 11.0546 28.0956 18.0454 28.0956C23.7874 28.0956 28.6699 24.4165 30.4506 19.29L31.8026 19.7575C29.8285 25.4409 24.4157 29.5233 18.0454 29.5233C10.3612 29.5233 4.06764 23.5826 3.5268 16.0532L1.79618 18.2929L0.662964 17.4212L3.49797 13.7523C3.6139 13.6022 3.7849 13.5043 3.97328 13.4801Z"
        fill="white"></path>
</svg>